<mxfile host="app.diagrams.net" agent="Mozilla/5.0 (Windows NT 10.0; Win64; x64) AppleWebKit/537.36 (KHTML, like Gecko) Chrome/130.0.0.0 Safari/537.36" version="24.8.3">
  <diagram name="Page-1" id="qpHjt9NFcRnPwfO4L0yd">
    <mxGraphModel dx="1843" dy="757" grid="1" gridSize="10" guides="1" tooltips="1" connect="1" arrows="1" fold="1" page="1" pageScale="1" pageWidth="850" pageHeight="1100" math="0" shadow="0">
      <root>
        <mxCell id="0" />
        <mxCell id="1" parent="0" />
        <mxCell id="pqzZt5ddkW4pr4vK5FZC-1" value="&lt;font style=&quot;font-size: 16px;&quot;&gt;start&lt;/font&gt;" style="ellipse;whiteSpace=wrap;html=1;" vertex="1" parent="1">
          <mxGeometry x="380" y="20" width="120" height="80" as="geometry" />
        </mxCell>
        <mxCell id="pqzZt5ddkW4pr4vK5FZC-2" value="&lt;font style=&quot;font-size: 16px;&quot;&gt;end&lt;/font&gt;" style="ellipse;whiteSpace=wrap;html=1;" vertex="1" parent="1">
          <mxGeometry x="380" y="710" width="120" height="80" as="geometry" />
        </mxCell>
        <mxCell id="pqzZt5ddkW4pr4vK5FZC-6" value="" style="endArrow=classic;html=1;rounded=0;exitX=0.5;exitY=1;exitDx=0;exitDy=0;entryX=0.5;entryY=0;entryDx=0;entryDy=0;" edge="1" parent="1" source="pqzZt5ddkW4pr4vK5FZC-1">
          <mxGeometry width="50" height="50" relative="1" as="geometry">
            <mxPoint x="330" y="370" as="sourcePoint" />
            <mxPoint x="440" y="160" as="targetPoint" />
          </mxGeometry>
        </mxCell>
        <mxCell id="pqzZt5ddkW4pr4vK5FZC-19" value="&quot;enter your grade:&quot;" style="strokeWidth=2;html=1;shape=mxgraph.flowchart.document2;whiteSpace=wrap;size=0.25;" vertex="1" parent="1">
          <mxGeometry x="380" y="160" width="120" height="60" as="geometry" />
        </mxCell>
        <mxCell id="pqzZt5ddkW4pr4vK5FZC-20" value="grade" style="html=1;strokeWidth=2;shape=manualInput;whiteSpace=wrap;rounded=1;size=26;arcSize=11;" vertex="1" parent="1">
          <mxGeometry x="390" y="270" width="100" height="60" as="geometry" />
        </mxCell>
        <mxCell id="pqzZt5ddkW4pr4vK5FZC-21" style="edgeStyle=orthogonalEdgeStyle;rounded=0;orthogonalLoop=1;jettySize=auto;html=1;entryX=0.503;entryY=0.273;entryDx=0;entryDy=0;entryPerimeter=0;" edge="1" parent="1" source="pqzZt5ddkW4pr4vK5FZC-19" target="pqzZt5ddkW4pr4vK5FZC-20">
          <mxGeometry relative="1" as="geometry" />
        </mxCell>
        <mxCell id="pqzZt5ddkW4pr4vK5FZC-24" value="true" style="edgeStyle=orthogonalEdgeStyle;rounded=0;orthogonalLoop=1;jettySize=auto;html=1;" edge="1" parent="1" source="pqzZt5ddkW4pr4vK5FZC-22">
          <mxGeometry relative="1" as="geometry">
            <mxPoint x="560" y="600" as="targetPoint" />
          </mxGeometry>
        </mxCell>
        <mxCell id="pqzZt5ddkW4pr4vK5FZC-25" value="false" style="edgeStyle=orthogonalEdgeStyle;rounded=0;orthogonalLoop=1;jettySize=auto;html=1;" edge="1" parent="1" source="pqzZt5ddkW4pr4vK5FZC-22">
          <mxGeometry relative="1" as="geometry">
            <mxPoint x="320" y="599.9999999999998" as="targetPoint" />
          </mxGeometry>
        </mxCell>
        <mxCell id="pqzZt5ddkW4pr4vK5FZC-22" value="grade &amp;gt; 60" style="strokeWidth=2;html=1;shape=mxgraph.flowchart.decision;whiteSpace=wrap;" vertex="1" parent="1">
          <mxGeometry x="390" y="390" width="100" height="100" as="geometry" />
        </mxCell>
        <mxCell id="pqzZt5ddkW4pr4vK5FZC-23" style="edgeStyle=orthogonalEdgeStyle;rounded=0;orthogonalLoop=1;jettySize=auto;html=1;entryX=0.5;entryY=0;entryDx=0;entryDy=0;entryPerimeter=0;" edge="1" parent="1" source="pqzZt5ddkW4pr4vK5FZC-20" target="pqzZt5ddkW4pr4vK5FZC-22">
          <mxGeometry relative="1" as="geometry" />
        </mxCell>
        <mxCell id="pqzZt5ddkW4pr4vK5FZC-29" style="edgeStyle=orthogonalEdgeStyle;rounded=0;orthogonalLoop=1;jettySize=auto;html=1;entryX=1;entryY=0.5;entryDx=0;entryDy=0;" edge="1" parent="1" source="pqzZt5ddkW4pr4vK5FZC-26" target="pqzZt5ddkW4pr4vK5FZC-2">
          <mxGeometry relative="1" as="geometry">
            <Array as="points">
              <mxPoint x="560" y="750" />
            </Array>
          </mxGeometry>
        </mxCell>
        <mxCell id="pqzZt5ddkW4pr4vK5FZC-26" value="&quot;pass&quot;" style="strokeWidth=2;html=1;shape=mxgraph.flowchart.document2;whiteSpace=wrap;size=0.25;" vertex="1" parent="1">
          <mxGeometry x="510" y="600" width="100" height="60" as="geometry" />
        </mxCell>
        <mxCell id="pqzZt5ddkW4pr4vK5FZC-28" style="edgeStyle=orthogonalEdgeStyle;rounded=0;orthogonalLoop=1;jettySize=auto;html=1;entryX=0;entryY=0.5;entryDx=0;entryDy=0;" edge="1" parent="1" source="pqzZt5ddkW4pr4vK5FZC-27" target="pqzZt5ddkW4pr4vK5FZC-2">
          <mxGeometry relative="1" as="geometry">
            <Array as="points">
              <mxPoint x="310" y="750" />
            </Array>
          </mxGeometry>
        </mxCell>
        <mxCell id="pqzZt5ddkW4pr4vK5FZC-27" value="fail" style="strokeWidth=2;html=1;shape=mxgraph.flowchart.document2;whiteSpace=wrap;size=0.25;" vertex="1" parent="1">
          <mxGeometry x="270" y="600" width="100" height="60" as="geometry" />
        </mxCell>
        <mxCell id="pqzZt5ddkW4pr4vK5FZC-45" value="&lt;font style=&quot;font-size: 16px;&quot;&gt;start&lt;/font&gt;" style="ellipse;whiteSpace=wrap;html=1;" vertex="1" parent="1">
          <mxGeometry x="365" y="860" width="120" height="80" as="geometry" />
        </mxCell>
        <mxCell id="pqzZt5ddkW4pr4vK5FZC-46" value="&lt;font style=&quot;font-size: 16px;&quot;&gt;end&lt;/font&gt;" style="ellipse;whiteSpace=wrap;html=1;" vertex="1" parent="1">
          <mxGeometry x="365" y="1740" width="120" height="80" as="geometry" />
        </mxCell>
        <mxCell id="pqzZt5ddkW4pr4vK5FZC-47" value="" style="endArrow=classic;html=1;rounded=0;exitX=0.5;exitY=1;exitDx=0;exitDy=0;entryX=0.5;entryY=0;entryDx=0;entryDy=0;" edge="1" parent="1" source="pqzZt5ddkW4pr4vK5FZC-45">
          <mxGeometry width="50" height="50" relative="1" as="geometry">
            <mxPoint x="315" y="1210" as="sourcePoint" />
            <mxPoint x="425" y="1000" as="targetPoint" />
          </mxGeometry>
        </mxCell>
        <mxCell id="pqzZt5ddkW4pr4vK5FZC-48" value="&quot;enter a number&quot;" style="strokeWidth=2;html=1;shape=mxgraph.flowchart.document2;whiteSpace=wrap;size=0.25;" vertex="1" parent="1">
          <mxGeometry x="365" y="1000" width="120" height="60" as="geometry" />
        </mxCell>
        <mxCell id="pqzZt5ddkW4pr4vK5FZC-49" value="number" style="html=1;strokeWidth=2;shape=manualInput;whiteSpace=wrap;rounded=1;size=26;arcSize=11;" vertex="1" parent="1">
          <mxGeometry x="375" y="1110" width="100" height="60" as="geometry" />
        </mxCell>
        <mxCell id="pqzZt5ddkW4pr4vK5FZC-50" style="edgeStyle=orthogonalEdgeStyle;rounded=0;orthogonalLoop=1;jettySize=auto;html=1;entryX=0.503;entryY=0.273;entryDx=0;entryDy=0;entryPerimeter=0;" edge="1" parent="1" source="pqzZt5ddkW4pr4vK5FZC-48" target="pqzZt5ddkW4pr4vK5FZC-49">
          <mxGeometry relative="1" as="geometry" />
        </mxCell>
        <mxCell id="pqzZt5ddkW4pr4vK5FZC-51" value="true" style="edgeStyle=orthogonalEdgeStyle;rounded=0;orthogonalLoop=1;jettySize=auto;html=1;" edge="1" parent="1" source="pqzZt5ddkW4pr4vK5FZC-53">
          <mxGeometry relative="1" as="geometry">
            <mxPoint x="545" y="1440" as="targetPoint" />
          </mxGeometry>
        </mxCell>
        <mxCell id="pqzZt5ddkW4pr4vK5FZC-52" value="false" style="edgeStyle=orthogonalEdgeStyle;rounded=0;orthogonalLoop=1;jettySize=auto;html=1;" edge="1" parent="1" source="pqzZt5ddkW4pr4vK5FZC-53">
          <mxGeometry relative="1" as="geometry">
            <mxPoint x="305" y="1439.9999999999998" as="targetPoint" />
          </mxGeometry>
        </mxCell>
        <mxCell id="pqzZt5ddkW4pr4vK5FZC-53" value="grade =&amp;gt; 0" style="strokeWidth=2;html=1;shape=mxgraph.flowchart.decision;whiteSpace=wrap;" vertex="1" parent="1">
          <mxGeometry x="375" y="1230" width="100" height="100" as="geometry" />
        </mxCell>
        <mxCell id="pqzZt5ddkW4pr4vK5FZC-54" style="edgeStyle=orthogonalEdgeStyle;rounded=0;orthogonalLoop=1;jettySize=auto;html=1;entryX=0.5;entryY=0;entryDx=0;entryDy=0;entryPerimeter=0;" edge="1" parent="1" source="pqzZt5ddkW4pr4vK5FZC-49" target="pqzZt5ddkW4pr4vK5FZC-53">
          <mxGeometry relative="1" as="geometry" />
        </mxCell>
        <mxCell id="pqzZt5ddkW4pr4vK5FZC-69" style="edgeStyle=orthogonalEdgeStyle;rounded=0;orthogonalLoop=1;jettySize=auto;html=1;entryX=0;entryY=0.5;entryDx=0;entryDy=0;" edge="1" parent="1" source="pqzZt5ddkW4pr4vK5FZC-58" target="pqzZt5ddkW4pr4vK5FZC-46">
          <mxGeometry relative="1" as="geometry">
            <Array as="points">
              <mxPoint x="280" y="1780" />
            </Array>
          </mxGeometry>
        </mxCell>
        <mxCell id="pqzZt5ddkW4pr4vK5FZC-58" value="&quot;negitive&quot;" style="strokeWidth=2;html=1;shape=mxgraph.flowchart.document2;whiteSpace=wrap;size=0.25;" vertex="1" parent="1">
          <mxGeometry x="255" y="1440" width="100" height="60" as="geometry" />
        </mxCell>
        <mxCell id="pqzZt5ddkW4pr4vK5FZC-66" style="edgeStyle=orthogonalEdgeStyle;rounded=0;orthogonalLoop=1;jettySize=auto;html=1;" edge="1" parent="1" source="pqzZt5ddkW4pr4vK5FZC-59" target="pqzZt5ddkW4pr4vK5FZC-62">
          <mxGeometry relative="1" as="geometry">
            <Array as="points">
              <mxPoint x="450" y="1490" />
            </Array>
          </mxGeometry>
        </mxCell>
        <mxCell id="pqzZt5ddkW4pr4vK5FZC-59" value="grade === 0" style="strokeWidth=2;html=1;shape=mxgraph.flowchart.decision;whiteSpace=wrap;" vertex="1" parent="1">
          <mxGeometry x="500" y="1440" width="100" height="100" as="geometry" />
        </mxCell>
        <mxCell id="pqzZt5ddkW4pr4vK5FZC-68" style="edgeStyle=orthogonalEdgeStyle;rounded=0;orthogonalLoop=1;jettySize=auto;html=1;entryX=0.5;entryY=0;entryDx=0;entryDy=0;" edge="1" parent="1" source="pqzZt5ddkW4pr4vK5FZC-62" target="pqzZt5ddkW4pr4vK5FZC-46">
          <mxGeometry relative="1" as="geometry" />
        </mxCell>
        <mxCell id="pqzZt5ddkW4pr4vK5FZC-62" value="&quot;positive&quot;" style="strokeWidth=2;html=1;shape=mxgraph.flowchart.document2;whiteSpace=wrap;size=0.25;" vertex="1" parent="1">
          <mxGeometry x="400" y="1600" width="100" height="60" as="geometry" />
        </mxCell>
        <mxCell id="pqzZt5ddkW4pr4vK5FZC-67" style="edgeStyle=orthogonalEdgeStyle;rounded=0;orthogonalLoop=1;jettySize=auto;html=1;entryX=1;entryY=0.5;entryDx=0;entryDy=0;" edge="1" parent="1" source="pqzZt5ddkW4pr4vK5FZC-64" target="pqzZt5ddkW4pr4vK5FZC-46">
          <mxGeometry relative="1" as="geometry">
            <Array as="points">
              <mxPoint x="670" y="1780" />
            </Array>
          </mxGeometry>
        </mxCell>
        <mxCell id="pqzZt5ddkW4pr4vK5FZC-64" value="&quot;zero&quot;" style="strokeWidth=2;html=1;shape=mxgraph.flowchart.document2;whiteSpace=wrap;size=0.25;" vertex="1" parent="1">
          <mxGeometry x="620" y="1600" width="100" height="60" as="geometry" />
        </mxCell>
        <mxCell id="pqzZt5ddkW4pr4vK5FZC-65" style="edgeStyle=orthogonalEdgeStyle;rounded=0;orthogonalLoop=1;jettySize=auto;html=1;entryX=0.584;entryY=0.078;entryDx=0;entryDy=0;entryPerimeter=0;" edge="1" parent="1" source="pqzZt5ddkW4pr4vK5FZC-59" target="pqzZt5ddkW4pr4vK5FZC-64">
          <mxGeometry relative="1" as="geometry" />
        </mxCell>
        <mxCell id="pqzZt5ddkW4pr4vK5FZC-70" value="&lt;font style=&quot;font-size: 16px;&quot;&gt;start&lt;/font&gt;" style="ellipse;whiteSpace=wrap;html=1;" vertex="1" parent="1">
          <mxGeometry x="365" y="1900" width="120" height="80" as="geometry" />
        </mxCell>
        <mxCell id="pqzZt5ddkW4pr4vK5FZC-71" value="&lt;font style=&quot;font-size: 16px;&quot;&gt;end&lt;/font&gt;" style="ellipse;whiteSpace=wrap;html=1;" vertex="1" parent="1">
          <mxGeometry x="365" y="2650" width="120" height="80" as="geometry" />
        </mxCell>
        <mxCell id="pqzZt5ddkW4pr4vK5FZC-75" style="edgeStyle=orthogonalEdgeStyle;rounded=0;orthogonalLoop=1;jettySize=auto;html=1;" edge="1" parent="1" source="pqzZt5ddkW4pr4vK5FZC-72" target="pqzZt5ddkW4pr4vK5FZC-73">
          <mxGeometry relative="1" as="geometry" />
        </mxCell>
        <mxCell id="pqzZt5ddkW4pr4vK5FZC-72" value="&quot;please insert grade&quot;" style="strokeWidth=2;html=1;shape=mxgraph.flowchart.document2;whiteSpace=wrap;size=0.25;" vertex="1" parent="1">
          <mxGeometry x="375" y="2040" width="100" height="60" as="geometry" />
        </mxCell>
        <mxCell id="pqzZt5ddkW4pr4vK5FZC-76" style="edgeStyle=orthogonalEdgeStyle;rounded=0;orthogonalLoop=1;jettySize=auto;html=1;" edge="1" parent="1" source="pqzZt5ddkW4pr4vK5FZC-73" target="pqzZt5ddkW4pr4vK5FZC-77">
          <mxGeometry relative="1" as="geometry">
            <mxPoint x="600" y="2400" as="targetPoint" />
          </mxGeometry>
        </mxCell>
        <mxCell id="pqzZt5ddkW4pr4vK5FZC-82" style="edgeStyle=orthogonalEdgeStyle;rounded=0;orthogonalLoop=1;jettySize=auto;html=1;" edge="1" parent="1" source="pqzZt5ddkW4pr4vK5FZC-73" target="pqzZt5ddkW4pr4vK5FZC-83">
          <mxGeometry relative="1" as="geometry">
            <mxPoint x="280" y="2440" as="targetPoint" />
          </mxGeometry>
        </mxCell>
        <mxCell id="pqzZt5ddkW4pr4vK5FZC-73" value="0 &amp;lt;= grade &amp;lt;= 100" style="strokeWidth=2;html=1;shape=mxgraph.flowchart.decision;whiteSpace=wrap;" vertex="1" parent="1">
          <mxGeometry x="375" y="2180" width="115" height="110" as="geometry" />
        </mxCell>
        <mxCell id="pqzZt5ddkW4pr4vK5FZC-74" style="edgeStyle=orthogonalEdgeStyle;rounded=0;orthogonalLoop=1;jettySize=auto;html=1;entryX=0.5;entryY=0;entryDx=0;entryDy=0;entryPerimeter=0;" edge="1" parent="1" source="pqzZt5ddkW4pr4vK5FZC-70" target="pqzZt5ddkW4pr4vK5FZC-72">
          <mxGeometry relative="1" as="geometry" />
        </mxCell>
        <mxCell id="pqzZt5ddkW4pr4vK5FZC-78" style="edgeStyle=orthogonalEdgeStyle;rounded=0;orthogonalLoop=1;jettySize=auto;html=1;" edge="1" parent="1" source="pqzZt5ddkW4pr4vK5FZC-77" target="pqzZt5ddkW4pr4vK5FZC-79">
          <mxGeometry relative="1" as="geometry">
            <mxPoint x="720" y="2600" as="targetPoint" />
          </mxGeometry>
        </mxCell>
        <mxCell id="pqzZt5ddkW4pr4vK5FZC-80" style="edgeStyle=orthogonalEdgeStyle;rounded=0;orthogonalLoop=1;jettySize=auto;html=1;" edge="1" parent="1" source="pqzZt5ddkW4pr4vK5FZC-77" target="pqzZt5ddkW4pr4vK5FZC-81">
          <mxGeometry relative="1" as="geometry">
            <mxPoint x="480" y="2600" as="targetPoint" />
          </mxGeometry>
        </mxCell>
        <mxCell id="pqzZt5ddkW4pr4vK5FZC-77" value="grade &amp;lt;= 100" style="strokeWidth=2;html=1;shape=mxgraph.flowchart.decision;whiteSpace=wrap;" vertex="1" parent="1">
          <mxGeometry x="550" y="2400" width="100" height="100" as="geometry" />
        </mxCell>
        <mxCell id="pqzZt5ddkW4pr4vK5FZC-85" style="edgeStyle=orthogonalEdgeStyle;rounded=0;orthogonalLoop=1;jettySize=auto;html=1;entryX=0.5;entryY=0;entryDx=0;entryDy=0;" edge="1" parent="1" source="pqzZt5ddkW4pr4vK5FZC-79" target="pqzZt5ddkW4pr4vK5FZC-71">
          <mxGeometry relative="1" as="geometry">
            <Array as="points">
              <mxPoint x="720" y="2620" />
              <mxPoint x="425" y="2620" />
            </Array>
          </mxGeometry>
        </mxCell>
        <mxCell id="pqzZt5ddkW4pr4vK5FZC-79" value="&quot;valid grade&quot;" style="strokeWidth=2;html=1;shape=mxgraph.flowchart.document2;whiteSpace=wrap;size=0.25;" vertex="1" parent="1">
          <mxGeometry x="670" y="2530" width="100" height="60" as="geometry" />
        </mxCell>
        <mxCell id="pqzZt5ddkW4pr4vK5FZC-86" style="edgeStyle=orthogonalEdgeStyle;rounded=0;orthogonalLoop=1;jettySize=auto;html=1;entryX=0.5;entryY=0;entryDx=0;entryDy=0;" edge="1" parent="1" source="pqzZt5ddkW4pr4vK5FZC-81" target="pqzZt5ddkW4pr4vK5FZC-71">
          <mxGeometry relative="1" as="geometry">
            <Array as="points">
              <mxPoint x="480" y="2620" />
              <mxPoint x="425" y="2620" />
            </Array>
          </mxGeometry>
        </mxCell>
        <mxCell id="pqzZt5ddkW4pr4vK5FZC-81" value="&quot;invalid grade&quot;" style="strokeWidth=2;html=1;shape=mxgraph.flowchart.document2;whiteSpace=wrap;size=0.25;" vertex="1" parent="1">
          <mxGeometry x="430" y="2530" width="100" height="60" as="geometry" />
        </mxCell>
        <mxCell id="pqzZt5ddkW4pr4vK5FZC-84" style="edgeStyle=orthogonalEdgeStyle;rounded=0;orthogonalLoop=1;jettySize=auto;html=1;entryX=0.5;entryY=0;entryDx=0;entryDy=0;" edge="1" parent="1" source="pqzZt5ddkW4pr4vK5FZC-83" target="pqzZt5ddkW4pr4vK5FZC-71">
          <mxGeometry relative="1" as="geometry">
            <Array as="points">
              <mxPoint x="280" y="2620" />
              <mxPoint x="425" y="2620" />
            </Array>
          </mxGeometry>
        </mxCell>
        <mxCell id="pqzZt5ddkW4pr4vK5FZC-83" value="&quot;invalid grade&quot;" style="strokeWidth=2;html=1;shape=mxgraph.flowchart.document2;whiteSpace=wrap;size=0.25;" vertex="1" parent="1">
          <mxGeometry x="230" y="2410" width="100" height="60" as="geometry" />
        </mxCell>
        <mxCell id="pqzZt5ddkW4pr4vK5FZC-89" value="&lt;font style=&quot;font-size: 16px;&quot;&gt;start&lt;/font&gt;" style="ellipse;whiteSpace=wrap;html=1;" vertex="1" parent="1">
          <mxGeometry x="363" y="2770" width="120" height="80" as="geometry" />
        </mxCell>
        <mxCell id="pqzZt5ddkW4pr4vK5FZC-90" value="&lt;font style=&quot;font-size: 16px;&quot;&gt;end&lt;/font&gt;" style="ellipse;whiteSpace=wrap;html=1;" vertex="1" parent="1">
          <mxGeometry x="362.5" y="3400" width="120" height="80" as="geometry" />
        </mxCell>
        <mxCell id="pqzZt5ddkW4pr4vK5FZC-92" value="&quot;price of the product: &quot;" style="strokeWidth=2;html=1;shape=mxgraph.flowchart.document2;whiteSpace=wrap;size=0.25;" vertex="1" parent="1">
          <mxGeometry x="373" y="2910" width="100" height="60" as="geometry" />
        </mxCell>
        <mxCell id="pqzZt5ddkW4pr4vK5FZC-94" style="edgeStyle=orthogonalEdgeStyle;rounded=0;orthogonalLoop=1;jettySize=auto;html=1;" edge="1" parent="1" source="pqzZt5ddkW4pr4vK5FZC-93" target="pqzZt5ddkW4pr4vK5FZC-95">
          <mxGeometry relative="1" as="geometry">
            <mxPoint x="600" y="3299.9999999999995" as="targetPoint" />
          </mxGeometry>
        </mxCell>
        <mxCell id="pqzZt5ddkW4pr4vK5FZC-101" style="edgeStyle=orthogonalEdgeStyle;rounded=0;orthogonalLoop=1;jettySize=auto;html=1;" edge="1" parent="1" source="pqzZt5ddkW4pr4vK5FZC-93" target="pqzZt5ddkW4pr4vK5FZC-102">
          <mxGeometry relative="1" as="geometry">
            <mxPoint x="240" y="3279.9999999999995" as="targetPoint" />
          </mxGeometry>
        </mxCell>
        <mxCell id="pqzZt5ddkW4pr4vK5FZC-93" value="productPrice&amp;gt;= 1000 &amp;amp;&amp;amp; productPrice&amp;lt;= 2000" style="strokeWidth=2;html=1;shape=mxgraph.flowchart.decision;whiteSpace=wrap;" vertex="1" parent="1">
          <mxGeometry x="330" y="3110" width="180" height="110" as="geometry" />
        </mxCell>
        <mxCell id="pqzZt5ddkW4pr4vK5FZC-103" style="edgeStyle=orthogonalEdgeStyle;rounded=0;orthogonalLoop=1;jettySize=auto;html=1;" edge="1" parent="1" source="pqzZt5ddkW4pr4vK5FZC-95" target="pqzZt5ddkW4pr4vK5FZC-90">
          <mxGeometry relative="1" as="geometry">
            <Array as="points">
              <mxPoint x="423" y="3300" />
            </Array>
          </mxGeometry>
        </mxCell>
        <mxCell id="pqzZt5ddkW4pr4vK5FZC-95" value="&quot;your new price is: &quot; productPrice* 0.9" style="strokeWidth=2;html=1;shape=mxgraph.flowchart.document2;whiteSpace=wrap;size=0.25;" vertex="1" parent="1">
          <mxGeometry x="550" y="3270" width="130" height="60" as="geometry" />
        </mxCell>
        <mxCell id="pqzZt5ddkW4pr4vK5FZC-96" style="edgeStyle=orthogonalEdgeStyle;rounded=0;orthogonalLoop=1;jettySize=auto;html=1;entryX=0.5;entryY=0.333;entryDx=0;entryDy=0;entryPerimeter=0;" edge="1" parent="1" source="pqzZt5ddkW4pr4vK5FZC-89" target="pqzZt5ddkW4pr4vK5FZC-92">
          <mxGeometry relative="1" as="geometry" />
        </mxCell>
        <mxCell id="pqzZt5ddkW4pr4vK5FZC-97" value="productPrice" style="html=1;strokeWidth=2;shape=manualInput;whiteSpace=wrap;rounded=1;size=26;arcSize=11;" vertex="1" parent="1">
          <mxGeometry x="375" y="3000" width="100" height="60" as="geometry" />
        </mxCell>
        <mxCell id="pqzZt5ddkW4pr4vK5FZC-99" style="edgeStyle=orthogonalEdgeStyle;rounded=0;orthogonalLoop=1;jettySize=auto;html=1;entryX=0.473;entryY=0.431;entryDx=0;entryDy=0;entryPerimeter=0;" edge="1" parent="1" source="pqzZt5ddkW4pr4vK5FZC-92" target="pqzZt5ddkW4pr4vK5FZC-97">
          <mxGeometry relative="1" as="geometry" />
        </mxCell>
        <mxCell id="pqzZt5ddkW4pr4vK5FZC-100" style="edgeStyle=orthogonalEdgeStyle;rounded=0;orthogonalLoop=1;jettySize=auto;html=1;entryX=0.528;entryY=0.129;entryDx=0;entryDy=0;entryPerimeter=0;" edge="1" parent="1" source="pqzZt5ddkW4pr4vK5FZC-97" target="pqzZt5ddkW4pr4vK5FZC-93">
          <mxGeometry relative="1" as="geometry" />
        </mxCell>
        <mxCell id="pqzZt5ddkW4pr4vK5FZC-104" style="edgeStyle=orthogonalEdgeStyle;rounded=0;orthogonalLoop=1;jettySize=auto;html=1;entryX=0.5;entryY=0;entryDx=0;entryDy=0;" edge="1" parent="1" source="pqzZt5ddkW4pr4vK5FZC-102" target="pqzZt5ddkW4pr4vK5FZC-90">
          <mxGeometry relative="1" as="geometry" />
        </mxCell>
        <mxCell id="pqzZt5ddkW4pr4vK5FZC-102" value="&quot;no discount today&quot;" style="strokeWidth=2;html=1;shape=mxgraph.flowchart.document2;whiteSpace=wrap;size=0.25;" vertex="1" parent="1">
          <mxGeometry x="170" y="3270" width="120" height="60" as="geometry" />
        </mxCell>
        <mxCell id="pqzZt5ddkW4pr4vK5FZC-105" value="&quot;what is the day today?&quot;" style="strokeWidth=2;html=1;shape=mxgraph.flowchart.document2;whiteSpace=wrap;size=0.25;" vertex="1" parent="1">
          <mxGeometry x="372.71" y="3650" width="100" height="60" as="geometry" />
        </mxCell>
        <mxCell id="pqzZt5ddkW4pr4vK5FZC-106" value="true" style="edgeStyle=orthogonalEdgeStyle;rounded=0;orthogonalLoop=1;jettySize=auto;html=1;" edge="1" parent="1" source="pqzZt5ddkW4pr4vK5FZC-108">
          <mxGeometry relative="1" as="geometry">
            <mxPoint x="614.71" y="4010" as="targetPoint" />
          </mxGeometry>
        </mxCell>
        <mxCell id="pqzZt5ddkW4pr4vK5FZC-107" style="edgeStyle=orthogonalEdgeStyle;rounded=0;orthogonalLoop=1;jettySize=auto;html=1;" edge="1" parent="1" source="pqzZt5ddkW4pr4vK5FZC-108">
          <mxGeometry relative="1" as="geometry">
            <mxPoint x="229.71" y="4010" as="targetPoint" />
          </mxGeometry>
        </mxCell>
        <mxCell id="pqzZt5ddkW4pr4vK5FZC-108" value="weekday === &quot;friday&quot; || weekday ===&#39;&quot;saturday&quot;" style="strokeWidth=2;html=1;shape=mxgraph.flowchart.decision;whiteSpace=wrap;" vertex="1" parent="1">
          <mxGeometry x="345" y="3840" width="150" height="110" as="geometry" />
        </mxCell>
        <mxCell id="pqzZt5ddkW4pr4vK5FZC-110" style="edgeStyle=orthogonalEdgeStyle;rounded=0;orthogonalLoop=1;jettySize=auto;html=1;entryX=0.5;entryY=0.333;entryDx=0;entryDy=0;entryPerimeter=0;" edge="1" parent="1" target="pqzZt5ddkW4pr4vK5FZC-105">
          <mxGeometry relative="1" as="geometry">
            <mxPoint x="422.71" y="3590" as="sourcePoint" />
          </mxGeometry>
        </mxCell>
        <mxCell id="pqzZt5ddkW4pr4vK5FZC-111" value="weekday" style="html=1;strokeWidth=2;shape=manualInput;whiteSpace=wrap;rounded=1;size=26;arcSize=11;" vertex="1" parent="1">
          <mxGeometry x="374.71" y="3740" width="100" height="60" as="geometry" />
        </mxCell>
        <mxCell id="pqzZt5ddkW4pr4vK5FZC-112" style="edgeStyle=orthogonalEdgeStyle;rounded=0;orthogonalLoop=1;jettySize=auto;html=1;entryX=0.473;entryY=0.431;entryDx=0;entryDy=0;entryPerimeter=0;" edge="1" parent="1" source="pqzZt5ddkW4pr4vK5FZC-105" target="pqzZt5ddkW4pr4vK5FZC-111">
          <mxGeometry relative="1" as="geometry" />
        </mxCell>
        <mxCell id="pqzZt5ddkW4pr4vK5FZC-113" style="edgeStyle=orthogonalEdgeStyle;rounded=0;orthogonalLoop=1;jettySize=auto;html=1;entryX=0.528;entryY=0.129;entryDx=0;entryDy=0;entryPerimeter=0;" edge="1" parent="1" source="pqzZt5ddkW4pr4vK5FZC-111" target="pqzZt5ddkW4pr4vK5FZC-108">
          <mxGeometry relative="1" as="geometry" />
        </mxCell>
        <mxCell id="pqzZt5ddkW4pr4vK5FZC-115" value="&lt;font style=&quot;font-size: 16px;&quot;&gt;start&lt;/font&gt;" style="ellipse;whiteSpace=wrap;html=1;" vertex="1" parent="1">
          <mxGeometry x="362.71" y="3510" width="120" height="80" as="geometry" />
        </mxCell>
        <mxCell id="pqzZt5ddkW4pr4vK5FZC-116" value="&lt;font style=&quot;font-size: 16px;&quot;&gt;end&lt;/font&gt;" style="ellipse;whiteSpace=wrap;html=1;" vertex="1" parent="1">
          <mxGeometry x="362.5" y="4140" width="120" height="80" as="geometry" />
        </mxCell>
        <mxCell id="pqzZt5ddkW4pr4vK5FZC-120" style="edgeStyle=orthogonalEdgeStyle;rounded=0;orthogonalLoop=1;jettySize=auto;html=1;entryX=0.5;entryY=0;entryDx=0;entryDy=0;" edge="1" parent="1" source="pqzZt5ddkW4pr4vK5FZC-117" target="pqzZt5ddkW4pr4vK5FZC-116">
          <mxGeometry relative="1" as="geometry" />
        </mxCell>
        <mxCell id="pqzZt5ddkW4pr4vK5FZC-117" value="weekend day" style="strokeWidth=2;html=1;shape=mxgraph.flowchart.document2;whiteSpace=wrap;size=0.25;" vertex="1" parent="1">
          <mxGeometry x="565" y="4010" width="100" height="60" as="geometry" />
        </mxCell>
        <mxCell id="pqzZt5ddkW4pr4vK5FZC-121" style="edgeStyle=orthogonalEdgeStyle;rounded=0;orthogonalLoop=1;jettySize=auto;html=1;entryX=0.5;entryY=0;entryDx=0;entryDy=0;" edge="1" parent="1" source="pqzZt5ddkW4pr4vK5FZC-119" target="pqzZt5ddkW4pr4vK5FZC-116">
          <mxGeometry relative="1" as="geometry" />
        </mxCell>
        <mxCell id="pqzZt5ddkW4pr4vK5FZC-119" value="normal day" style="strokeWidth=2;html=1;shape=mxgraph.flowchart.document2;whiteSpace=wrap;size=0.25;" vertex="1" parent="1">
          <mxGeometry x="180" y="4010" width="100" height="60" as="geometry" />
        </mxCell>
        <mxCell id="pqzZt5ddkW4pr4vK5FZC-168" style="edgeStyle=orthogonalEdgeStyle;rounded=0;orthogonalLoop=1;jettySize=auto;html=1;entryX=0.5;entryY=0;entryDx=0;entryDy=0;" edge="1" parent="1" source="pqzZt5ddkW4pr4vK5FZC-130" target="pqzZt5ddkW4pr4vK5FZC-159">
          <mxGeometry relative="1" as="geometry" />
        </mxCell>
        <mxCell id="pqzZt5ddkW4pr4vK5FZC-130" value="&lt;font style=&quot;font-size: 16px;&quot;&gt;start&lt;/font&gt;" style="ellipse;whiteSpace=wrap;html=1;" vertex="1" parent="1">
          <mxGeometry x="367.22999999999996" y="4320" width="120" height="80" as="geometry" />
        </mxCell>
        <mxCell id="pqzZt5ddkW4pr4vK5FZC-131" value="&lt;font style=&quot;font-size: 16px;&quot;&gt;end&lt;/font&gt;" style="ellipse;whiteSpace=wrap;html=1;" vertex="1" parent="1">
          <mxGeometry x="363.00000000000006" y="5350" width="120" height="80" as="geometry" />
        </mxCell>
        <mxCell id="pqzZt5ddkW4pr4vK5FZC-141" value="false" style="edgeStyle=orthogonalEdgeStyle;rounded=0;orthogonalLoop=1;jettySize=auto;html=1;entryX=0.5;entryY=0;entryDx=0;entryDy=0;" edge="1" parent="1" source="pqzZt5ddkW4pr4vK5FZC-136" target="pqzZt5ddkW4pr4vK5FZC-131">
          <mxGeometry relative="1" as="geometry">
            <Array as="points">
              <mxPoint x="650" y="4815" />
              <mxPoint x="650" y="5290" />
              <mxPoint x="423" y="5290" />
            </Array>
          </mxGeometry>
        </mxCell>
        <mxCell id="pqzZt5ddkW4pr4vK5FZC-170" style="edgeStyle=orthogonalEdgeStyle;rounded=0;orthogonalLoop=1;jettySize=auto;html=1;" edge="1" parent="1" source="pqzZt5ddkW4pr4vK5FZC-136" target="pqzZt5ddkW4pr4vK5FZC-171">
          <mxGeometry relative="1" as="geometry">
            <mxPoint x="426.94000000000005" y="4990" as="targetPoint" />
          </mxGeometry>
        </mxCell>
        <mxCell id="pqzZt5ddkW4pr4vK5FZC-136" value="i &amp;lt;= limit" style="strokeWidth=2;html=1;shape=mxgraph.flowchart.start_2;whiteSpace=wrap;" vertex="1" parent="1">
          <mxGeometry x="329.44000000000005" y="4720" width="195" height="190" as="geometry" />
        </mxCell>
        <mxCell id="pqzZt5ddkW4pr4vK5FZC-140" style="edgeStyle=orthogonalEdgeStyle;rounded=0;orthogonalLoop=1;jettySize=auto;html=1;entryX=0;entryY=0.5;entryDx=0;entryDy=0;entryPerimeter=0;" edge="1" parent="1" source="pqzZt5ddkW4pr4vK5FZC-143" target="pqzZt5ddkW4pr4vK5FZC-136">
          <mxGeometry relative="1" as="geometry">
            <Array as="points">
              <mxPoint x="249.44" y="4815" />
            </Array>
          </mxGeometry>
        </mxCell>
        <mxCell id="pqzZt5ddkW4pr4vK5FZC-143" value="i = i + 2" style="rounded=0;whiteSpace=wrap;html=1;" vertex="1" parent="1">
          <mxGeometry x="310.00000000000006" y="5180" width="120" height="60" as="geometry" />
        </mxCell>
        <mxCell id="pqzZt5ddkW4pr4vK5FZC-150" value="" style="edgeStyle=orthogonalEdgeStyle;rounded=0;orthogonalLoop=1;jettySize=auto;html=1;entryX=0.5;entryY=0;entryDx=0;entryDy=0;entryPerimeter=0;exitX=0.5;exitY=1;exitDx=0;exitDy=0;" edge="1" parent="1" source="pqzZt5ddkW4pr4vK5FZC-160" target="pqzZt5ddkW4pr4vK5FZC-136">
          <mxGeometry relative="1" as="geometry">
            <mxPoint x="429.6666666666665" y="4680" as="sourcePoint" />
            <mxPoint x="429.3299999999999" y="4720" as="targetPoint" />
          </mxGeometry>
        </mxCell>
        <mxCell id="pqzZt5ddkW4pr4vK5FZC-159" value="&quot;please insert a number&quot;" style="shape=document;whiteSpace=wrap;html=1;boundedLbl=1;" vertex="1" parent="1">
          <mxGeometry x="350.62" y="4450" width="144.76" height="50" as="geometry" />
        </mxCell>
        <mxCell id="pqzZt5ddkW4pr4vK5FZC-160" value="limit" style="html=1;strokeWidth=2;shape=manualInput;whiteSpace=wrap;rounded=1;size=26;arcSize=11;" vertex="1" parent="1">
          <mxGeometry x="372.78999999999985" y="4530" width="100" height="60" as="geometry" />
        </mxCell>
        <mxCell id="pqzZt5ddkW4pr4vK5FZC-162" style="edgeStyle=orthogonalEdgeStyle;rounded=0;orthogonalLoop=1;jettySize=auto;html=1;" edge="1" parent="1" source="pqzZt5ddkW4pr4vK5FZC-159" target="pqzZt5ddkW4pr4vK5FZC-160">
          <mxGeometry relative="1" as="geometry">
            <mxPoint x="420.29" y="4540" as="targetPoint" />
          </mxGeometry>
        </mxCell>
        <mxCell id="pqzZt5ddkW4pr4vK5FZC-169" value="i = 2" style="rounded=0;whiteSpace=wrap;html=1;" vertex="1" parent="1">
          <mxGeometry x="362.5" y="4630" width="120" height="60" as="geometry" />
        </mxCell>
        <mxCell id="pqzZt5ddkW4pr4vK5FZC-172" style="edgeStyle=orthogonalEdgeStyle;rounded=0;orthogonalLoop=1;jettySize=auto;html=1;" edge="1" parent="1" source="pqzZt5ddkW4pr4vK5FZC-171" target="pqzZt5ddkW4pr4vK5FZC-143">
          <mxGeometry relative="1" as="geometry" />
        </mxCell>
        <mxCell id="pqzZt5ddkW4pr4vK5FZC-171" value="i" style="shape=document;whiteSpace=wrap;html=1;boundedLbl=1;" vertex="1" parent="1">
          <mxGeometry x="366.94000000000005" y="4950" width="120" height="80" as="geometry" />
        </mxCell>
        <mxCell id="pqzZt5ddkW4pr4vK5FZC-206" value="" style="edgeStyle=orthogonalEdgeStyle;rounded=0;orthogonalLoop=1;jettySize=auto;html=1;" edge="1" parent="1" source="pqzZt5ddkW4pr4vK5FZC-174" target="pqzZt5ddkW4pr4vK5FZC-196">
          <mxGeometry relative="1" as="geometry" />
        </mxCell>
        <mxCell id="pqzZt5ddkW4pr4vK5FZC-174" value="&lt;font style=&quot;font-size: 16px;&quot;&gt;start&lt;/font&gt;" style="ellipse;whiteSpace=wrap;html=1;" vertex="1" parent="1">
          <mxGeometry x="389.99999999999994" y="5580" width="120" height="80" as="geometry" />
        </mxCell>
        <mxCell id="pqzZt5ddkW4pr4vK5FZC-175" value="&lt;font style=&quot;font-size: 16px;&quot;&gt;end&lt;/font&gt;" style="ellipse;whiteSpace=wrap;html=1;" vertex="1" parent="1">
          <mxGeometry x="364.71000000000004" y="6600" width="120" height="80" as="geometry" />
        </mxCell>
        <mxCell id="pqzZt5ddkW4pr4vK5FZC-176" value="false" style="edgeStyle=orthogonalEdgeStyle;rounded=0;orthogonalLoop=1;jettySize=auto;html=1;entryX=0.5;entryY=0;entryDx=0;entryDy=0;" edge="1" parent="1" source="pqzZt5ddkW4pr4vK5FZC-178" target="pqzZt5ddkW4pr4vK5FZC-175">
          <mxGeometry relative="1" as="geometry">
            <Array as="points">
              <mxPoint x="650" y="5910" />
              <mxPoint x="650" y="6560" />
              <mxPoint x="423" y="6560" />
              <mxPoint x="423" y="6600" />
            </Array>
          </mxGeometry>
        </mxCell>
        <mxCell id="pqzZt5ddkW4pr4vK5FZC-178" value="number != 0" style="strokeWidth=2;html=1;shape=mxgraph.flowchart.start_2;whiteSpace=wrap;" vertex="1" parent="1">
          <mxGeometry x="352.50000000000006" y="5810" width="195" height="190" as="geometry" />
        </mxCell>
        <mxCell id="pqzZt5ddkW4pr4vK5FZC-179" style="edgeStyle=orthogonalEdgeStyle;rounded=0;orthogonalLoop=1;jettySize=auto;html=1;entryX=0;entryY=0.5;entryDx=0;entryDy=0;entryPerimeter=0;" edge="1" parent="1" target="pqzZt5ddkW4pr4vK5FZC-178">
          <mxGeometry relative="1" as="geometry">
            <Array as="points">
              <mxPoint x="440" y="6440" />
              <mxPoint x="249" y="6440" />
              <mxPoint x="249" y="5890" />
              <mxPoint x="353" y="5890" />
            </Array>
            <mxPoint x="440" y="6390" as="sourcePoint" />
          </mxGeometry>
        </mxCell>
        <mxCell id="pqzZt5ddkW4pr4vK5FZC-181" value="" style="edgeStyle=orthogonalEdgeStyle;rounded=0;orthogonalLoop=1;jettySize=auto;html=1;entryX=0.5;entryY=0;entryDx=0;entryDy=0;entryPerimeter=0;exitX=0.5;exitY=1;exitDx=0;exitDy=0;exitPerimeter=0;" edge="1" parent="1" source="pqzZt5ddkW4pr4vK5FZC-196" target="pqzZt5ddkW4pr4vK5FZC-178">
          <mxGeometry relative="1" as="geometry">
            <mxPoint x="422.7900000000002" y="5760" as="sourcePoint" />
            <mxPoint x="429.3299999999999" y="5890" as="targetPoint" />
          </mxGeometry>
        </mxCell>
        <mxCell id="pqzZt5ddkW4pr4vK5FZC-189" style="edgeStyle=orthogonalEdgeStyle;rounded=0;orthogonalLoop=1;jettySize=auto;html=1;" edge="1" parent="1" source="pqzZt5ddkW4pr4vK5FZC-188" target="pqzZt5ddkW4pr4vK5FZC-190">
          <mxGeometry relative="1" as="geometry">
            <mxPoint x="530.0000000000002" y="6330" as="targetPoint" />
            <Array as="points">
              <mxPoint x="530" y="6260" />
            </Array>
          </mxGeometry>
        </mxCell>
        <mxCell id="pqzZt5ddkW4pr4vK5FZC-188" value="number &amp;gt; 0" style="rhombus;whiteSpace=wrap;html=1;" vertex="1" parent="1">
          <mxGeometry x="405" y="6220" width="80" height="80" as="geometry" />
        </mxCell>
        <mxCell id="pqzZt5ddkW4pr4vK5FZC-203" style="edgeStyle=orthogonalEdgeStyle;rounded=0;orthogonalLoop=1;jettySize=auto;html=1;" edge="1" parent="1" source="pqzZt5ddkW4pr4vK5FZC-190">
          <mxGeometry relative="1" as="geometry">
            <mxPoint x="440.0000000000002" y="6410" as="targetPoint" />
          </mxGeometry>
        </mxCell>
        <mxCell id="pqzZt5ddkW4pr4vK5FZC-190" value="&quot;positive&quot;" style="shape=document;whiteSpace=wrap;html=1;boundedLbl=1;" vertex="1" parent="1">
          <mxGeometry x="470" y="6320" width="120" height="40" as="geometry" />
        </mxCell>
        <mxCell id="pqzZt5ddkW4pr4vK5FZC-192" value="" style="edgeStyle=orthogonalEdgeStyle;rounded=0;orthogonalLoop=1;jettySize=auto;html=1;exitX=0;exitY=0.5;exitDx=0;exitDy=0;" edge="1" parent="1" source="pqzZt5ddkW4pr4vK5FZC-188" target="pqzZt5ddkW4pr4vK5FZC-191">
          <mxGeometry relative="1" as="geometry">
            <mxPoint x="426.8571428571429" y="6270" as="sourcePoint" />
            <mxPoint x="370" y="6420" as="targetPoint" />
          </mxGeometry>
        </mxCell>
        <mxCell id="pqzZt5ddkW4pr4vK5FZC-204" style="edgeStyle=orthogonalEdgeStyle;rounded=0;orthogonalLoop=1;jettySize=auto;html=1;" edge="1" parent="1" source="pqzZt5ddkW4pr4vK5FZC-191">
          <mxGeometry relative="1" as="geometry">
            <mxPoint x="440.0000000000002" y="6400" as="targetPoint" />
            <Array as="points">
              <mxPoint x="441" y="6340" />
              <mxPoint x="441" y="6400" />
            </Array>
          </mxGeometry>
        </mxCell>
        <mxCell id="pqzZt5ddkW4pr4vK5FZC-191" value="&quot;negitive&quot;" style="shape=document;whiteSpace=wrap;html=1;boundedLbl=1;" vertex="1" parent="1">
          <mxGeometry x="280" y="6330" width="120" height="40" as="geometry" />
        </mxCell>
        <mxCell id="pqzZt5ddkW4pr4vK5FZC-196" value="number = 1" style="rounded=0;whiteSpace=wrap;html=1;" vertex="1" parent="1">
          <mxGeometry x="390" y="5700" width="120" height="60" as="geometry" />
        </mxCell>
        <mxCell id="pqzZt5ddkW4pr4vK5FZC-199" value="" style="edgeStyle=orthogonalEdgeStyle;rounded=0;orthogonalLoop=1;jettySize=auto;html=1;" edge="1" parent="1" source="pqzZt5ddkW4pr4vK5FZC-178" target="pqzZt5ddkW4pr4vK5FZC-198">
          <mxGeometry relative="1" as="geometry">
            <mxPoint x="426.94000000000005" y="6120" as="targetPoint" />
            <mxPoint x="450" y="6000" as="sourcePoint" />
          </mxGeometry>
        </mxCell>
        <mxCell id="pqzZt5ddkW4pr4vK5FZC-198" value="&quot;enter a number&quot;" style="shape=document;whiteSpace=wrap;html=1;boundedLbl=1;" vertex="1" parent="1">
          <mxGeometry x="390" y="6070" width="120" height="40" as="geometry" />
        </mxCell>
        <mxCell id="pqzZt5ddkW4pr4vK5FZC-201" style="edgeStyle=orthogonalEdgeStyle;rounded=0;orthogonalLoop=1;jettySize=auto;html=1;" edge="1" parent="1" source="pqzZt5ddkW4pr4vK5FZC-200" target="pqzZt5ddkW4pr4vK5FZC-188">
          <mxGeometry relative="1" as="geometry" />
        </mxCell>
        <mxCell id="pqzZt5ddkW4pr4vK5FZC-200" value="number" style="html=1;strokeWidth=2;shape=manualInput;whiteSpace=wrap;rounded=1;size=26;arcSize=11;" vertex="1" parent="1">
          <mxGeometry x="390" y="6140" width="100" height="60" as="geometry" />
        </mxCell>
        <mxCell id="pqzZt5ddkW4pr4vK5FZC-202" style="edgeStyle=orthogonalEdgeStyle;rounded=0;orthogonalLoop=1;jettySize=auto;html=1;entryX=0.609;entryY=0.155;entryDx=0;entryDy=0;entryPerimeter=0;" edge="1" parent="1" source="pqzZt5ddkW4pr4vK5FZC-198" target="pqzZt5ddkW4pr4vK5FZC-200">
          <mxGeometry relative="1" as="geometry" />
        </mxCell>
        <mxCell id="pqzZt5ddkW4pr4vK5FZC-227" value="" style="edgeStyle=orthogonalEdgeStyle;rounded=0;orthogonalLoop=1;jettySize=auto;html=1;" edge="1" parent="1" source="pqzZt5ddkW4pr4vK5FZC-228">
          <mxGeometry relative="1" as="geometry">
            <mxPoint x="233" y="7050" as="targetPoint" />
          </mxGeometry>
        </mxCell>
        <mxCell id="pqzZt5ddkW4pr4vK5FZC-228" value="&lt;font style=&quot;font-size: 16px;&quot;&gt;start&lt;/font&gt;" style="ellipse;whiteSpace=wrap;html=1;" vertex="1" parent="1">
          <mxGeometry x="172.99999999999994" y="6930" width="120" height="80" as="geometry" />
        </mxCell>
        <mxCell id="pqzZt5ddkW4pr4vK5FZC-229" value="&lt;font style=&quot;font-size: 16px;&quot;&gt;end&lt;/font&gt;" style="ellipse;whiteSpace=wrap;html=1;" vertex="1" parent="1">
          <mxGeometry x="324.72" y="9320" width="120" height="80" as="geometry" />
        </mxCell>
        <mxCell id="pqzZt5ddkW4pr4vK5FZC-230" value="false" style="edgeStyle=orthogonalEdgeStyle;rounded=0;orthogonalLoop=1;jettySize=auto;html=1;entryX=0.5;entryY=0;entryDx=0;entryDy=0;" edge="1" parent="1" source="pqzZt5ddkW4pr4vK5FZC-231" target="pqzZt5ddkW4pr4vK5FZC-229">
          <mxGeometry relative="1" as="geometry">
            <Array as="points">
              <mxPoint x="610.0100000000001" y="8630" />
              <mxPoint x="610.0100000000001" y="9280" />
              <mxPoint x="383.01" y="9280" />
              <mxPoint x="383.01" y="9320" />
            </Array>
          </mxGeometry>
        </mxCell>
        <mxCell id="pqzZt5ddkW4pr4vK5FZC-231" value="number != 0" style="strokeWidth=2;html=1;shape=mxgraph.flowchart.start_2;whiteSpace=wrap;" vertex="1" parent="1">
          <mxGeometry x="312.51000000000005" y="8530" width="195" height="190" as="geometry" />
        </mxCell>
        <mxCell id="pqzZt5ddkW4pr4vK5FZC-232" style="edgeStyle=orthogonalEdgeStyle;rounded=0;orthogonalLoop=1;jettySize=auto;html=1;entryX=0;entryY=0.5;entryDx=0;entryDy=0;entryPerimeter=0;" edge="1" parent="1" target="pqzZt5ddkW4pr4vK5FZC-231">
          <mxGeometry relative="1" as="geometry">
            <Array as="points">
              <mxPoint x="400.01" y="9160" />
              <mxPoint x="209.01" y="9160" />
              <mxPoint x="209.01" y="8610" />
              <mxPoint x="313.01" y="8610" />
            </Array>
            <mxPoint x="400.01" y="9110" as="sourcePoint" />
          </mxGeometry>
        </mxCell>
        <mxCell id="pqzZt5ddkW4pr4vK5FZC-233" value="" style="edgeStyle=orthogonalEdgeStyle;rounded=0;orthogonalLoop=1;jettySize=auto;html=1;entryX=0.5;entryY=0;entryDx=0;entryDy=0;entryPerimeter=0;exitX=0.5;exitY=1;exitDx=0;exitDy=0;exitPerimeter=0;" edge="1" parent="1" target="pqzZt5ddkW4pr4vK5FZC-231">
          <mxGeometry relative="1" as="geometry">
            <mxPoint x="410.01" y="8480" as="sourcePoint" />
            <mxPoint x="389.3399999999999" y="8610" as="targetPoint" />
          </mxGeometry>
        </mxCell>
        <mxCell id="pqzZt5ddkW4pr4vK5FZC-234" style="edgeStyle=orthogonalEdgeStyle;rounded=0;orthogonalLoop=1;jettySize=auto;html=1;" edge="1" parent="1" source="pqzZt5ddkW4pr4vK5FZC-235" target="pqzZt5ddkW4pr4vK5FZC-237">
          <mxGeometry relative="1" as="geometry">
            <mxPoint x="490.0100000000002" y="9050" as="targetPoint" />
            <Array as="points">
              <mxPoint x="490.01" y="8980" />
            </Array>
          </mxGeometry>
        </mxCell>
        <mxCell id="pqzZt5ddkW4pr4vK5FZC-235" value="number &amp;gt; 0" style="rhombus;whiteSpace=wrap;html=1;" vertex="1" parent="1">
          <mxGeometry x="365.01" y="8940" width="80" height="80" as="geometry" />
        </mxCell>
        <mxCell id="pqzZt5ddkW4pr4vK5FZC-236" style="edgeStyle=orthogonalEdgeStyle;rounded=0;orthogonalLoop=1;jettySize=auto;html=1;" edge="1" parent="1" source="pqzZt5ddkW4pr4vK5FZC-237">
          <mxGeometry relative="1" as="geometry">
            <mxPoint x="400.0100000000002" y="9130" as="targetPoint" />
          </mxGeometry>
        </mxCell>
        <mxCell id="pqzZt5ddkW4pr4vK5FZC-237" value="&quot;positive&quot;" style="shape=document;whiteSpace=wrap;html=1;boundedLbl=1;" vertex="1" parent="1">
          <mxGeometry x="430.01" y="9040" width="120" height="40" as="geometry" />
        </mxCell>
        <mxCell id="pqzZt5ddkW4pr4vK5FZC-238" value="" style="edgeStyle=orthogonalEdgeStyle;rounded=0;orthogonalLoop=1;jettySize=auto;html=1;exitX=0;exitY=0.5;exitDx=0;exitDy=0;" edge="1" parent="1" source="pqzZt5ddkW4pr4vK5FZC-235" target="pqzZt5ddkW4pr4vK5FZC-240">
          <mxGeometry relative="1" as="geometry">
            <mxPoint x="386.8671428571429" y="8990" as="sourcePoint" />
            <mxPoint x="330.01" y="9140" as="targetPoint" />
          </mxGeometry>
        </mxCell>
        <mxCell id="pqzZt5ddkW4pr4vK5FZC-239" style="edgeStyle=orthogonalEdgeStyle;rounded=0;orthogonalLoop=1;jettySize=auto;html=1;" edge="1" parent="1" source="pqzZt5ddkW4pr4vK5FZC-240">
          <mxGeometry relative="1" as="geometry">
            <mxPoint x="400.0100000000002" y="9120" as="targetPoint" />
            <Array as="points">
              <mxPoint x="401.01" y="9060" />
              <mxPoint x="401.01" y="9120" />
            </Array>
          </mxGeometry>
        </mxCell>
        <mxCell id="pqzZt5ddkW4pr4vK5FZC-240" value="&quot;negitive&quot;" style="shape=document;whiteSpace=wrap;html=1;boundedLbl=1;" vertex="1" parent="1">
          <mxGeometry x="240.01" y="9050" width="120" height="40" as="geometry" />
        </mxCell>
        <mxCell id="pqzZt5ddkW4pr4vK5FZC-242" value="" style="edgeStyle=orthogonalEdgeStyle;rounded=0;orthogonalLoop=1;jettySize=auto;html=1;" edge="1" parent="1" source="pqzZt5ddkW4pr4vK5FZC-231" target="pqzZt5ddkW4pr4vK5FZC-243">
          <mxGeometry relative="1" as="geometry">
            <mxPoint x="386.95000000000005" y="8840" as="targetPoint" />
            <mxPoint x="410.01" y="8720" as="sourcePoint" />
          </mxGeometry>
        </mxCell>
        <mxCell id="pqzZt5ddkW4pr4vK5FZC-243" value="&quot;enter a number&quot;" style="shape=document;whiteSpace=wrap;html=1;boundedLbl=1;" vertex="1" parent="1">
          <mxGeometry x="350.01" y="8790" width="120" height="40" as="geometry" />
        </mxCell>
        <mxCell id="pqzZt5ddkW4pr4vK5FZC-244" style="edgeStyle=orthogonalEdgeStyle;rounded=0;orthogonalLoop=1;jettySize=auto;html=1;" edge="1" parent="1" source="pqzZt5ddkW4pr4vK5FZC-245" target="pqzZt5ddkW4pr4vK5FZC-235">
          <mxGeometry relative="1" as="geometry" />
        </mxCell>
        <mxCell id="pqzZt5ddkW4pr4vK5FZC-245" value="number" style="html=1;strokeWidth=2;shape=manualInput;whiteSpace=wrap;rounded=1;size=26;arcSize=11;" vertex="1" parent="1">
          <mxGeometry x="350.01" y="8860" width="100" height="60" as="geometry" />
        </mxCell>
        <mxCell id="pqzZt5ddkW4pr4vK5FZC-246" style="edgeStyle=orthogonalEdgeStyle;rounded=0;orthogonalLoop=1;jettySize=auto;html=1;entryX=0.609;entryY=0.155;entryDx=0;entryDy=0;entryPerimeter=0;" edge="1" parent="1" source="pqzZt5ddkW4pr4vK5FZC-243" target="pqzZt5ddkW4pr4vK5FZC-245">
          <mxGeometry relative="1" as="geometry" />
        </mxCell>
        <mxCell id="pqzZt5ddkW4pr4vK5FZC-247" value="&quot;enter a number&quot;" style="shape=document;whiteSpace=wrap;html=1;boundedLbl=1;" vertex="1" parent="1">
          <mxGeometry x="176.94" y="7050" width="120" height="40" as="geometry" />
        </mxCell>
        <mxCell id="pqzZt5ddkW4pr4vK5FZC-252" style="edgeStyle=orthogonalEdgeStyle;rounded=0;orthogonalLoop=1;jettySize=auto;html=1;" edge="1" parent="1" target="pqzZt5ddkW4pr4vK5FZC-250">
          <mxGeometry relative="1" as="geometry">
            <mxPoint x="234.80714285714288" y="7440" as="sourcePoint" />
          </mxGeometry>
        </mxCell>
        <mxCell id="pqzZt5ddkW4pr4vK5FZC-248" value="number" style="html=1;strokeWidth=2;shape=manualInput;whiteSpace=wrap;rounded=1;size=26;arcSize=11;" vertex="1" parent="1">
          <mxGeometry x="176.94" y="7120" width="100" height="60" as="geometry" />
        </mxCell>
        <mxCell id="pqzZt5ddkW4pr4vK5FZC-249" style="edgeStyle=orthogonalEdgeStyle;rounded=0;orthogonalLoop=1;jettySize=auto;html=1;entryX=0.579;entryY=0.26;entryDx=0;entryDy=0;entryPerimeter=0;" edge="1" parent="1" source="pqzZt5ddkW4pr4vK5FZC-247" target="pqzZt5ddkW4pr4vK5FZC-248">
          <mxGeometry relative="1" as="geometry" />
        </mxCell>
        <mxCell id="pqzZt5ddkW4pr4vK5FZC-253" value="true" style="edgeStyle=orthogonalEdgeStyle;rounded=0;orthogonalLoop=1;jettySize=auto;html=1;" edge="1" parent="1" source="pqzZt5ddkW4pr4vK5FZC-250">
          <mxGeometry relative="1" as="geometry">
            <mxPoint x="234.88235294117658" y="7690" as="targetPoint" />
          </mxGeometry>
        </mxCell>
        <mxCell id="pqzZt5ddkW4pr4vK5FZC-258" value="false" style="edgeStyle=orthogonalEdgeStyle;rounded=0;orthogonalLoop=1;jettySize=auto;html=1;" edge="1" parent="1" source="pqzZt5ddkW4pr4vK5FZC-250">
          <mxGeometry relative="1" as="geometry">
            <mxPoint x="420.01" y="7770" as="targetPoint" />
          </mxGeometry>
        </mxCell>
        <mxCell id="pqzZt5ddkW4pr4vK5FZC-250" value="i &amp;lt;= number" style="ellipse;whiteSpace=wrap;html=1;aspect=fixed;" vertex="1" parent="1">
          <mxGeometry x="160.39" y="7460" width="150" height="150" as="geometry" />
        </mxCell>
        <mxCell id="pqzZt5ddkW4pr4vK5FZC-255" style="edgeStyle=orthogonalEdgeStyle;rounded=0;orthogonalLoop=1;jettySize=auto;html=1;entryX=0;entryY=0.5;entryDx=0;entryDy=0;" edge="1" parent="1" target="pqzZt5ddkW4pr4vK5FZC-250">
          <mxGeometry relative="1" as="geometry">
            <mxPoint x="174.88999999999987" y="7715.058823529413" as="sourcePoint" />
            <Array as="points">
              <mxPoint x="139.95" y="7715" />
              <mxPoint x="139.95" y="7535" />
            </Array>
          </mxGeometry>
        </mxCell>
        <mxCell id="pqzZt5ddkW4pr4vK5FZC-257" value="" style="edgeStyle=orthogonalEdgeStyle;rounded=0;orthogonalLoop=1;jettySize=auto;html=1;" edge="1" parent="1" source="pqzZt5ddkW4pr4vK5FZC-248" target="pqzZt5ddkW4pr4vK5FZC-256">
          <mxGeometry relative="1" as="geometry">
            <mxPoint x="227" y="7180" as="sourcePoint" />
            <mxPoint x="227" y="7270" as="targetPoint" />
          </mxGeometry>
        </mxCell>
        <mxCell id="pqzZt5ddkW4pr4vK5FZC-268" style="edgeStyle=orthogonalEdgeStyle;rounded=0;orthogonalLoop=1;jettySize=auto;html=1;" edge="1" parent="1" source="pqzZt5ddkW4pr4vK5FZC-256" target="pqzZt5ddkW4pr4vK5FZC-266">
          <mxGeometry relative="1" as="geometry" />
        </mxCell>
        <mxCell id="pqzZt5ddkW4pr4vK5FZC-256" value="cohavit = &quot;&quot;" style="rounded=0;whiteSpace=wrap;html=1;" vertex="1" parent="1">
          <mxGeometry x="166.94" y="7230" width="120" height="60" as="geometry" />
        </mxCell>
        <mxCell id="pqzZt5ddkW4pr4vK5FZC-261" value="true" style="edgeStyle=orthogonalEdgeStyle;rounded=0;orthogonalLoop=1;jettySize=auto;html=1;" edge="1" parent="1" source="pqzZt5ddkW4pr4vK5FZC-260" target="pqzZt5ddkW4pr4vK5FZC-264">
          <mxGeometry relative="1" as="geometry">
            <mxPoint x="420.01" y="8020" as="targetPoint" />
          </mxGeometry>
        </mxCell>
        <mxCell id="pqzZt5ddkW4pr4vK5FZC-262" style="edgeStyle=orthogonalEdgeStyle;rounded=0;orthogonalLoop=1;jettySize=auto;html=1;" edge="1" parent="1" source="pqzZt5ddkW4pr4vK5FZC-260" target="pqzZt5ddkW4pr4vK5FZC-263">
          <mxGeometry relative="1" as="geometry">
            <mxPoint x="250.01000000000022" y="8180" as="targetPoint" />
          </mxGeometry>
        </mxCell>
        <mxCell id="pqzZt5ddkW4pr4vK5FZC-260" value="i &amp;lt;= number" style="ellipse;whiteSpace=wrap;html=1;aspect=fixed;" vertex="1" parent="1">
          <mxGeometry x="330.01" y="7770" width="180" height="180" as="geometry" />
        </mxCell>
        <mxCell id="pqzZt5ddkW4pr4vK5FZC-263" value="end" style="ellipse;whiteSpace=wrap;html=1;" vertex="1" parent="1">
          <mxGeometry x="530.0000000000002" y="8170" width="120" height="80" as="geometry" />
        </mxCell>
        <mxCell id="pqzZt5ddkW4pr4vK5FZC-272" style="edgeStyle=orthogonalEdgeStyle;rounded=0;orthogonalLoop=1;jettySize=auto;html=1;entryX=0;entryY=0.5;entryDx=0;entryDy=0;" edge="1" parent="1" source="pqzZt5ddkW4pr4vK5FZC-264" target="pqzZt5ddkW4pr4vK5FZC-260">
          <mxGeometry relative="1" as="geometry">
            <Array as="points">
              <mxPoint x="310" y="8100" />
              <mxPoint x="310" y="7860" />
            </Array>
          </mxGeometry>
        </mxCell>
        <mxCell id="pqzZt5ddkW4pr4vK5FZC-264" value="cohavit + &quot;/n&quot;" style="shape=document;whiteSpace=wrap;html=1;boundedLbl=1;" vertex="1" parent="1">
          <mxGeometry x="360.01" y="8060" width="120" height="80" as="geometry" />
        </mxCell>
        <mxCell id="pqzZt5ddkW4pr4vK5FZC-269" style="edgeStyle=orthogonalEdgeStyle;rounded=0;orthogonalLoop=1;jettySize=auto;html=1;entryX=0.5;entryY=0;entryDx=0;entryDy=0;" edge="1" parent="1" source="pqzZt5ddkW4pr4vK5FZC-266" target="pqzZt5ddkW4pr4vK5FZC-250">
          <mxGeometry relative="1" as="geometry" />
        </mxCell>
        <mxCell id="pqzZt5ddkW4pr4vK5FZC-266" value="i = 1" style="rounded=0;whiteSpace=wrap;html=1;" vertex="1" parent="1">
          <mxGeometry x="170" y="7340" width="120" height="60" as="geometry" />
        </mxCell>
        <mxCell id="pqzZt5ddkW4pr4vK5FZC-270" value="&#xa;&lt;span style=&quot;color: rgb(0, 0, 0); font-family: Helvetica; font-size: 12px; font-style: normal; font-variant-ligatures: normal; font-variant-caps: normal; font-weight: 400; letter-spacing: normal; orphans: 2; text-align: center; text-indent: 0px; text-transform: none; widows: 2; word-spacing: 0px; -webkit-text-stroke-width: 0px; white-space: normal; background-color: rgb(251, 251, 251); text-decoration-thickness: initial; text-decoration-style: initial; text-decoration-color: initial; display: inline !important; float: none;&quot;&gt;cohavit = cohavit + &quot;*&quot;&lt;/span&gt;&#xa;&#xa;" style="rounded=0;whiteSpace=wrap;html=1;" vertex="1" parent="1">
          <mxGeometry x="175" y="7690" width="120" height="60" as="geometry" />
        </mxCell>
        <mxCell id="pqzZt5ddkW4pr4vK5FZC-271" value="i = 1" style="rounded=0;whiteSpace=wrap;html=1;" vertex="1" parent="1">
          <mxGeometry x="365" y="7660" width="120" height="60" as="geometry" />
        </mxCell>
        <mxCell id="pqzZt5ddkW4pr4vK5FZC-273" value="&lt;font style=&quot;font-size: 18px;&quot;&gt;exercise 9&lt;/font&gt;" style="ellipse;whiteSpace=wrap;html=1;" vertex="1" parent="1">
          <mxGeometry x="710" y="9470" width="120" height="80" as="geometry" />
        </mxCell>
        <mxCell id="pqzZt5ddkW4pr4vK5FZC-276" style="edgeStyle=orthogonalEdgeStyle;rounded=0;orthogonalLoop=1;jettySize=auto;html=1;" edge="1" parent="1" source="pqzZt5ddkW4pr4vK5FZC-274">
          <mxGeometry relative="1" as="geometry">
            <mxPoint x="385" y="9670" as="targetPoint" />
          </mxGeometry>
        </mxCell>
        <mxCell id="pqzZt5ddkW4pr4vK5FZC-274" value="&lt;font style=&quot;font-size: 16px;&quot;&gt;start&lt;/font&gt;" style="ellipse;whiteSpace=wrap;html=1;" vertex="1" parent="1">
          <mxGeometry x="325.00999999999993" y="9470" width="120" height="80" as="geometry" />
        </mxCell>
        <mxCell id="pqzZt5ddkW4pr4vK5FZC-275" value="&lt;font style=&quot;font-size: 16px;&quot;&gt;end&lt;/font&gt;" style="ellipse;whiteSpace=wrap;html=1;" vertex="1" parent="1">
          <mxGeometry x="324.72" y="9980" width="120" height="80" as="geometry" />
        </mxCell>
        <mxCell id="pqzZt5ddkW4pr4vK5FZC-278" style="edgeStyle=orthogonalEdgeStyle;rounded=0;orthogonalLoop=1;jettySize=auto;html=1;" edge="1" parent="1" source="pqzZt5ddkW4pr4vK5FZC-277" target="pqzZt5ddkW4pr4vK5FZC-279">
          <mxGeometry relative="1" as="geometry">
            <mxPoint x="385.0100000000002" y="9880" as="targetPoint" />
          </mxGeometry>
        </mxCell>
        <mxCell id="pqzZt5ddkW4pr4vK5FZC-283" value="true" style="edgeLabel;html=1;align=center;verticalAlign=middle;resizable=0;points=[];" vertex="1" connectable="0" parent="pqzZt5ddkW4pr4vK5FZC-278">
          <mxGeometry x="-0.35" y="7" relative="1" as="geometry">
            <mxPoint as="offset" />
          </mxGeometry>
        </mxCell>
        <mxCell id="pqzZt5ddkW4pr4vK5FZC-281" style="edgeStyle=orthogonalEdgeStyle;rounded=0;orthogonalLoop=1;jettySize=auto;html=1;entryX=0.5;entryY=0;entryDx=0;entryDy=0;" edge="1" parent="1" source="pqzZt5ddkW4pr4vK5FZC-277" target="pqzZt5ddkW4pr4vK5FZC-275">
          <mxGeometry relative="1" as="geometry">
            <Array as="points">
              <mxPoint x="550" y="9735" />
              <mxPoint x="550" y="9940" />
              <mxPoint x="385" y="9940" />
            </Array>
          </mxGeometry>
        </mxCell>
        <mxCell id="pqzZt5ddkW4pr4vK5FZC-282" value="false" style="edgeLabel;html=1;align=center;verticalAlign=middle;resizable=0;points=[];" vertex="1" connectable="0" parent="pqzZt5ddkW4pr4vK5FZC-281">
          <mxGeometry x="-0.6971" y="-1" relative="1" as="geometry">
            <mxPoint as="offset" />
          </mxGeometry>
        </mxCell>
        <mxCell id="pqzZt5ddkW4pr4vK5FZC-277" value="&lt;font style=&quot;font-size: 18px;&quot;&gt;i = -300;&lt;/font&gt;&lt;div&gt;&lt;font size=&quot;3&quot;&gt;&amp;nbsp;i &amp;lt;= 300;&amp;nbsp;&lt;/font&gt;&lt;/div&gt;&lt;div&gt;&lt;font size=&quot;3&quot;&gt;i = i + 1&lt;/font&gt;&lt;/div&gt;" style="ellipse;whiteSpace=wrap;html=1;aspect=fixed;" vertex="1" parent="1">
          <mxGeometry x="320.01" y="9670" width="130" height="130" as="geometry" />
        </mxCell>
        <mxCell id="pqzZt5ddkW4pr4vK5FZC-280" style="edgeStyle=orthogonalEdgeStyle;rounded=0;orthogonalLoop=1;jettySize=auto;html=1;entryX=0;entryY=0.5;entryDx=0;entryDy=0;" edge="1" parent="1" source="pqzZt5ddkW4pr4vK5FZC-279" target="pqzZt5ddkW4pr4vK5FZC-277">
          <mxGeometry relative="1" as="geometry">
            <Array as="points">
              <mxPoint x="385" y="9910" />
              <mxPoint x="250" y="9910" />
              <mxPoint x="250" y="9735" />
            </Array>
          </mxGeometry>
        </mxCell>
        <mxCell id="pqzZt5ddkW4pr4vK5FZC-279" value="i" style="shape=document;whiteSpace=wrap;html=1;boundedLbl=1;" vertex="1" parent="1">
          <mxGeometry x="325.01" y="9840" width="120" height="50" as="geometry" />
        </mxCell>
        <mxCell id="pqzZt5ddkW4pr4vK5FZC-284" value="&lt;font style=&quot;font-size: 18px;&quot;&gt;exercise 9&lt;/font&gt;" style="ellipse;whiteSpace=wrap;html=1;" vertex="1" parent="1">
          <mxGeometry x="720" y="9480" width="120" height="80" as="geometry" />
        </mxCell>
        <mxCell id="pqzZt5ddkW4pr4vK5FZC-285" style="edgeStyle=orthogonalEdgeStyle;rounded=0;orthogonalLoop=1;jettySize=auto;html=1;" edge="1" parent="1" source="pqzZt5ddkW4pr4vK5FZC-286">
          <mxGeometry relative="1" as="geometry">
            <mxPoint x="395" y="9680" as="targetPoint" />
          </mxGeometry>
        </mxCell>
        <mxCell id="pqzZt5ddkW4pr4vK5FZC-286" value="&lt;font style=&quot;font-size: 16px;&quot;&gt;start&lt;/font&gt;" style="ellipse;whiteSpace=wrap;html=1;" vertex="1" parent="1">
          <mxGeometry x="335.00999999999993" y="9480" width="120" height="80" as="geometry" />
        </mxCell>
        <mxCell id="pqzZt5ddkW4pr4vK5FZC-287" value="&lt;font style=&quot;font-size: 16px;&quot;&gt;end&lt;/font&gt;" style="ellipse;whiteSpace=wrap;html=1;" vertex="1" parent="1">
          <mxGeometry x="334.72" y="9990" width="120" height="80" as="geometry" />
        </mxCell>
        <mxCell id="pqzZt5ddkW4pr4vK5FZC-288" style="edgeStyle=orthogonalEdgeStyle;rounded=0;orthogonalLoop=1;jettySize=auto;html=1;" edge="1" parent="1" source="pqzZt5ddkW4pr4vK5FZC-292" target="pqzZt5ddkW4pr4vK5FZC-294">
          <mxGeometry relative="1" as="geometry">
            <mxPoint x="395.0100000000002" y="9890" as="targetPoint" />
          </mxGeometry>
        </mxCell>
        <mxCell id="pqzZt5ddkW4pr4vK5FZC-289" value="true" style="edgeLabel;html=1;align=center;verticalAlign=middle;resizable=0;points=[];" vertex="1" connectable="0" parent="pqzZt5ddkW4pr4vK5FZC-288">
          <mxGeometry x="-0.35" y="7" relative="1" as="geometry">
            <mxPoint as="offset" />
          </mxGeometry>
        </mxCell>
        <mxCell id="pqzZt5ddkW4pr4vK5FZC-290" style="edgeStyle=orthogonalEdgeStyle;rounded=0;orthogonalLoop=1;jettySize=auto;html=1;entryX=0.5;entryY=0;entryDx=0;entryDy=0;" edge="1" parent="1" source="pqzZt5ddkW4pr4vK5FZC-292" target="pqzZt5ddkW4pr4vK5FZC-287">
          <mxGeometry relative="1" as="geometry">
            <Array as="points">
              <mxPoint x="560" y="9745" />
              <mxPoint x="560" y="9950" />
              <mxPoint x="395" y="9950" />
            </Array>
          </mxGeometry>
        </mxCell>
        <mxCell id="pqzZt5ddkW4pr4vK5FZC-291" value="false" style="edgeLabel;html=1;align=center;verticalAlign=middle;resizable=0;points=[];" vertex="1" connectable="0" parent="pqzZt5ddkW4pr4vK5FZC-290">
          <mxGeometry x="-0.6971" y="-1" relative="1" as="geometry">
            <mxPoint as="offset" />
          </mxGeometry>
        </mxCell>
        <mxCell id="pqzZt5ddkW4pr4vK5FZC-292" value="&lt;font style=&quot;font-size: 18px;&quot;&gt;i = -300;&lt;/font&gt;&lt;div&gt;&lt;font size=&quot;3&quot;&gt;&amp;nbsp;i &amp;lt;= 300;&amp;nbsp;&lt;/font&gt;&lt;/div&gt;&lt;div&gt;&lt;font size=&quot;3&quot;&gt;i = i + 1&lt;/font&gt;&lt;/div&gt;" style="ellipse;whiteSpace=wrap;html=1;aspect=fixed;" vertex="1" parent="1">
          <mxGeometry x="330.01" y="9680" width="130" height="130" as="geometry" />
        </mxCell>
        <mxCell id="pqzZt5ddkW4pr4vK5FZC-293" style="edgeStyle=orthogonalEdgeStyle;rounded=0;orthogonalLoop=1;jettySize=auto;html=1;entryX=0;entryY=0.5;entryDx=0;entryDy=0;" edge="1" parent="1" source="pqzZt5ddkW4pr4vK5FZC-294" target="pqzZt5ddkW4pr4vK5FZC-292">
          <mxGeometry relative="1" as="geometry">
            <Array as="points">
              <mxPoint x="395" y="9920" />
              <mxPoint x="260" y="9920" />
              <mxPoint x="260" y="9745" />
            </Array>
          </mxGeometry>
        </mxCell>
        <mxCell id="pqzZt5ddkW4pr4vK5FZC-294" value="i" style="shape=document;whiteSpace=wrap;html=1;boundedLbl=1;" vertex="1" parent="1">
          <mxGeometry x="335.01" y="9850" width="120" height="50" as="geometry" />
        </mxCell>
      </root>
    </mxGraphModel>
  </diagram>
</mxfile>
